<?xml version="1.0" encoding="utf-8"?>
<!-- Generator: Adobe Illustrator 23.0.3, SVG Export Plug-In . SVG Version: 6.00 Build 0)  -->
<svg version="1.1" id="Layer_1" xmlns="http://www.w3.org/2000/svg" xmlns:xlink="http://www.w3.org/1999/xlink" x="0px" y="0px"
	 viewBox="0 0 1920 1080" style="enable-background:new 0 0 1920 1080;" xml:space="preserve">
<style type="text/css">
	.st0{fill:#42210B;stroke:#000000;stroke-width:9;stroke-miterlimit:10;}
	.st1{fill:#00FF00;stroke:#000000;stroke-width:9;stroke-miterlimit:10;}
	.st2{fill:#00FF23;}
	.st3{fill:#13E700;}
	.st4{fill:none;stroke:#000000;stroke-miterlimit:10;}
	.st5{fill:#42210B;}
	.st6{fill:#00FF00;}
	.st7{fill:#FCFF6C;stroke:#000000;stroke-width:0.25;stroke-miterlimit:10;}
</style>
<g>
	<g>
		<path class="st0" d="M971.2,1021.03c-168.08,0-309.05-92.73-378.52-248.48H267.57c-6.2,0-11.23-5.03-11.23-11.23V495.39
			c0-6.2,5.03-11.23,11.23-11.23h278.8c5.6-122.54,50.85-234.72,128.03-316.91C753.18,83.36,858.58,37.17,971.2,37.17
			c112.62,0,218.03,46.2,296.82,130.08c77.2,82.19,122.45,194.38,128.05,316.91h290.63c6.2,0,11.23,5.03,11.23,11.23v265.93
			c0,6.2-5.03,11.23-11.23,11.23h-336.94C1280.29,928.31,1139.31,1021.03,971.2,1021.03z"/>
		<path class="st1" d="M971.2,48.4c224.45,0,407.23,188.43,414.04,446.99h301.46v265.93h-344.29
			c-67.73,158.37-208.54,248.48-371.21,248.48c-162.71,0-303.44-90.12-371.17-248.48H267.57V495.39H557.2
			C564.01,236.83,746.75,48.4,971.2,48.4 M971.2,25.94c-115.75,0-224.07,47.45-304.99,133.62
			c-76.77,81.74-122.67,192.33-130.48,313.37H267.57c-12.41,0-22.46,10.06-22.46,22.46v265.93c0,12.41,10.06,22.46,22.46,22.46
			h317.88c72.34,155.9,215.5,248.48,385.75,248.48c170.27,0,313.45-92.58,385.79-248.48h329.71c12.41,0,22.46-10.06,22.46-22.46
			V495.39c0-12.41-10.06-22.46-22.46-22.46h-280c-7.82-121.03-53.72-231.63-130.5-313.37C1195.28,73.39,1086.96,25.94,971.2,25.94
			L971.2,25.94z"/>
	</g>
	<g>
		<path class="st2" d="M971.2,1021.03c-168.08,0-309.05-92.73-378.52-248.48H267.57c-6.2,0-11.23-5.03-11.23-11.23V495.39
			c0-6.2,5.03-11.23,11.23-11.23h278.8c5.6-122.54,50.85-234.72,128.03-316.91C753.18,83.36,858.58,37.17,971.2,37.17
			c112.62,0,218.03,46.2,296.82,130.08c77.2,82.19,122.45,194.38,128.05,316.91h290.63c6.2,0,11.23,5.03,11.23,11.23v265.93
			c0,6.2-5.03,11.23-11.23,11.23h-336.94C1280.29,928.31,1139.31,1021.03,971.2,1021.03z"/>
		<path class="st2" d="M971.2,48.4c224.45,0,407.23,188.43,414.04,446.99h301.46v265.93h-344.29
			c-67.73,158.37-208.54,248.48-371.21,248.48c-162.71,0-303.44-90.12-371.17-248.48H267.57V495.39H557.2
			C564.01,236.83,746.75,48.4,971.2,48.4 M971.2,25.94c-115.75,0-224.07,47.45-304.99,133.62
			c-76.77,81.74-122.67,192.33-130.48,313.37H267.57c-12.41,0-22.46,10.06-22.46,22.46v265.93c0,12.41,10.06,22.46,22.46,22.46
			h317.88c72.34,155.9,215.5,248.48,385.75,248.48c170.27,0,313.45-92.58,385.79-248.48h329.71c12.41,0,22.46-10.06,22.46-22.46
			V495.39c0-12.41-10.06-22.46-22.46-22.46h-280c-7.82-121.03-53.72-231.63-130.5-313.37C1195.28,73.39,1086.96,25.94,971.2,25.94
			L971.2,25.94z"/>
	</g>
	<path class="st2" d="M1316.73,510.36c-1.24-31.94-7.34-64.88-17.3-106.85c-14.53,4.46-27.7,8.46-42.64,12.99
		c1.39,34.52-2.62,66.04-13.22,93.86H1316.73z M1171.46,745.93c1.91,14,2.51,28.15,1.65,42.34c-1.68,27.82-7.26,88.43-19.84,107.94
		c4.72-4.94,9.51-8.2,13.25-12.58c13.48-15.84,26.99-31.52,40.02-47.44c23.17-28.34,44.74-57.54,61.55-90.27H1171.46z
		 M1163.68,408.6v42.42c-0.04,25.27-8.24,45.19-26.06,59.34h74.35c3.22-7.86,5.62-16.29,7.08-25.31c3.52-21.34,5.5-42.91,8.39-66.12
		C1203.7,422.98,1183.33,422.23,1163.68,408.6z M807.11,745.93c6.14,37.59,18.23,88.02,41.22,122.84c0,0,1.53,0.49,4.38,0.56
		c5.39,0.22,15.54-1.05,28.6-10.15c0,0,24.6,69.64,101.5,125.98l0.04-1.01v1.01c76.9-56.35,101.69-125.2,101.69-125.2
		c12.35,8.65,22.13,10.22,27.7,10.22c3.41-0.04,5.24-0.6,5.24-0.6c23.17-35.08,35.23-86,41.37-123.66H807.11z M1149.64,900.44
		c1.27-1.05,2.47-2.47,3.63-4.23C1152.03,897.48,1150.8,898.87,1149.64,900.44z M813.85,496.06c-6.36-8.87-10.18-19.51-10.56-32.39
		c-0.49-17.52-0.07-35.12-0.07-56.16c-20.97,15.05-41.78,15.2-64.06,11.72c1.91,32.09,2.92,62.67,14.71,91.13h74.17
		C822.49,506.17,817.7,501.42,813.85,496.06z M792.32,788.65c-0.82-14.3-0.26-28.57,1.61-42.72H697
		c17.22,33.96,38.97,64.84,64.96,92.89c13.48,14.6,36.39,35.19,49.76,48.6C789.66,842.26,794.12,819.2,792.32,788.65z M708.72,415.6
		c-8.01-1.83-14.86-3-21.42-4.98c-6.78-2.06-13.37-4.98-21.19-7.94c-9.92,42.42-15.42,75.63-15.91,107.68h71.7
		C711.22,482.28,707.26,450.5,708.72,415.6z"/>
	<path class="st2" d="M1237.99,253.46c39.05,57.62,43.5,125.31,43.5,125.31c-83.04,45.6-135.12,11.38-135.12,11.38
		c-8.16-65.11-42.46-92.81-42.46-92.81c-72.67-63.57-131.3,41.97-135.79,50.39c-0.11,0.19-0.19,0.3-0.22,0.37
		c0-0.04-0.04-0.07-0.07-0.15c-4.53-8.42-63.16-113.97-135.83-50.36c0,0-34.29,27.67-42.42,92.81c0,0-52.12,34.18-135.16-11.42
		c0,0,4.49-67.69,43.5-125.27c-18.53,10.37-39.01,26.36-54.32,50.69c0.75-2.85,25.68-94.76,109.25-104.12
		c46.46-28.49,114.71-39.05,214.79-5.5c44.03-14.83,81.92-21.12,114.49-21.12c41.74,0,74.8,10.33,100.94,26.39
		c83.6,9.36,108.54,101.27,109.29,104.12C1277.04,279.85,1256.56,263.86,1237.99,253.46z"/>
	<path d="M968.13,347.73v0.79c0,0-0.07-0.15-0.22-0.41C967.95,348.03,968.02,347.91,968.13,347.73z"/>
	<path d="M967.91,348.1c-0.07,0.11-0.07,0.19-0.07,0.19v-0.34C967.87,348.03,967.91,348.06,967.91,348.1z"/>
	<path class="st3" d="M907.52,441.4c-1.24-3.78-3.07-7.34-5.24-10.26c-1.39-1.87-3.22-3.71-5.39-5.39
		c-16.06-12.84-50.88-18.87-68.1-13.52c0.45,5.43,1.35,8.61,3,13.52c7.15,21.6,18.91,30.18,39.84,31.3
		c-6.7-5.32-9.4-1.31-15.65-6.81c-6.55-5.8-11.16-13.85-17.11-21.6c12.39,8.27,21.68,15.72,33.32,21.49
		c0.56,0.26,2.32,1.2,2.85,1.57c0,0,9.32,3.78,16.4,13.03C891.42,464.72,909.65,463.6,907.52,441.4z M886.93,436.65
		c-5.5,1.83-11.64,5.47-17,4.57c-7.49-1.27-11.34-7.82-10.18-15.46c0-0.11,0-0.15,0.04-0.22c0.41-2.4,2.43-7.11,6.51-5.95
		c1.05,2.25,1.8,4.34,2.47,6.18c1.2,3.15,2.13,5.47,3.78,6.29c2.7,1.31,7.68,1.01,13.37-0.22
		C886.29,433.76,887.38,436.5,886.93,436.65z"/>
	<path class="st3" d="M1028.37,425.75c-2.13,1.68-3.97,3.52-5.39,5.39c-2.13,2.92-3.97,6.48-5.2,10.26
		c-2.13,22.2,16.1,23.32,16.1,23.32c7.08-9.25,16.4-13.03,16.4-13.03c0.52-0.37,2.28-1.31,2.85-1.57
		c11.64-5.77,20.93-13.22,33.32-21.49c-5.99,7.75-10.56,15.8-17.15,21.6c-6.22,5.5-8.91,1.5-15.61,6.81
		c20.93-1.12,32.68-9.7,39.84-31.3c1.65-4.9,2.51-8.09,3-13.52C1079.29,406.88,1044.47,412.91,1028.37,425.75z M1055.37,441.21
		c-5.35,0.9-11.49-2.73-17.03-4.57c-0.41-0.15,0.67-2.88,1.01-4.83c5.73,1.24,10.71,1.54,13.4,0.22c1.65-0.82,2.58-3.14,3.78-6.29
		c0.67-1.83,1.42-3.93,2.47-6.18c4.08-1.16,6.1,3.56,6.51,5.95v0.22C1066.67,433.39,1062.85,439.94,1055.37,441.21z"/>
	<path class="st4" d="M708.72,415.6c-8.01-1.83-14.86-3-21.42-4.98c-6.78-2.06-13.37-4.98-21.19-7.94
		c-9.92,42.42-15.42,75.63-15.91,107.68h71.7C711.22,482.28,707.26,450.5,708.72,415.6z M792.32,788.65
		c-0.82-14.3-0.26-28.57,1.61-42.72H697c17.22,33.96,38.97,64.84,64.96,92.89c13.48,14.6,36.39,35.19,49.76,48.6
		C789.66,842.26,794.12,819.2,792.32,788.65z M813.85,496.06c-6.36-8.87-10.18-19.51-10.56-32.39c-0.49-17.52-0.07-35.12-0.07-56.16
		c-20.97,15.05-41.78,15.2-64.06,11.72c1.91,32.09,2.92,62.67,14.71,91.13h74.17C822.49,506.17,817.7,501.42,813.85,496.06z
		 M907.52,441.4c-1.24-3.78-3.07-7.34-5.24-10.26c-1.39-1.87-3.22-3.71-5.39-5.39c-16.06-12.84-50.88-18.87-68.1-13.52
		c0.45,5.43,1.35,8.61,3,13.52c7.15,21.6,18.91,30.18,39.84,31.3c-6.7-5.32-9.4-1.31-15.65-6.81c-6.55-5.8-11.16-13.85-17.11-21.6
		c12.39,8.27,21.68,15.72,33.32,21.49c0.56,0.26,2.32,1.2,2.85,1.57c0,0,9.32,3.78,16.4,13.03
		C891.42,464.72,909.65,463.6,907.52,441.4z M1028.37,425.75c-2.13,1.68-3.97,3.52-5.39,5.39c-2.13,2.92-3.97,6.48-5.2,10.26
		c-2.13,22.2,16.1,23.32,16.1,23.32c7.08-9.25,16.4-13.03,16.4-13.03c0.52-0.37,2.28-1.31,2.85-1.57
		c11.64-5.77,20.93-13.22,33.32-21.49c-5.99,7.75-10.56,15.8-17.15,21.6c-6.22,5.5-8.91,1.5-15.61,6.81
		c20.93-1.12,32.68-9.7,39.84-31.3c1.65-4.9,2.51-8.09,3-13.52C1079.29,406.88,1044.47,412.91,1028.37,425.75z M1149.64,900.44
		c1.27-1.05,2.47-2.47,3.63-4.23C1152.03,897.48,1150.8,898.87,1149.64,900.44z M807.11,745.93c6.14,37.59,18.23,88.02,41.22,122.84
		c0,0,1.53,0.49,4.38,0.56c5.39,0.22,15.54-1.05,28.6-10.15c0,0,24.6,69.64,101.5,125.98l0.04-1.01v1.01
		c76.9-56.35,101.69-125.2,101.69-125.2c12.35,8.65,22.13,10.22,27.7,10.22c3.41-0.04,5.24-0.6,5.24-0.6
		c23.17-35.08,35.23-86,41.37-123.66H807.11z M1163.68,408.6v42.42c-0.04,25.27-8.24,45.19-26.06,59.34h74.35
		c3.22-7.86,5.62-16.29,7.08-25.31c3.52-21.34,5.5-42.91,8.39-66.12C1203.7,422.98,1183.33,422.23,1163.68,408.6z M1171.46,745.93
		c1.91,14,2.51,28.15,1.65,42.34c-1.68,27.82-7.26,88.43-19.84,107.94c4.72-4.94,9.51-8.2,13.25-12.58
		c13.48-15.84,26.99-31.52,40.02-47.44c23.17-28.34,44.74-57.54,61.55-90.27H1171.46z M1292.36,304.19
		c-0.75-2.85-25.68-94.76-109.29-104.12c-26.13-16.06-59.19-26.39-100.94-26.39c-32.57,0-70.46,6.29-114.49,21.12
		c-100.07-33.55-168.33-22.99-214.79,5.5c-83.56,9.36-108.5,101.27-109.25,104.12c15.31-24.34,35.79-40.32,54.32-50.69
		c-39.01,57.58-43.5,125.27-43.5,125.27c83.04,45.6,135.16,11.42,135.16,11.42C797.71,325.26,832,297.6,832,297.6
		c72.67-63.61,131.3,41.93,135.83,50.36v0.34c0,0,0-0.07,0.07-0.19c0.15,0.26,0.22,0.41,0.22,0.41v-0.79
		c4.49-8.42,63.12-113.97,135.79-50.39c0,0,34.29,27.71,42.46,92.81c0,0,52.08,34.22,135.12-11.38c0,0-4.46-67.69-43.5-125.31
		C1256.56,263.86,1277.04,279.85,1292.36,304.19z M1316.73,510.36c-1.24-31.94-7.34-64.88-17.3-106.85
		c-14.53,4.46-27.7,8.46-42.64,12.99c1.39,34.52-2.62,66.04-13.22,93.86H1316.73z"/>
	<g>
		<path class="st5" d="M971.2,1009.93c-165.9,0-304.68-92.9-371.25-248.48H267.57c-0.07,0-0.13-0.06-0.13-0.13V495.39
			c0-0.07,0.06-0.13,0.13-0.13h289.51c3.29-124.02,47.83-237.8,125.42-320.41C759.15,93.23,861.68,48.28,971.2,48.28
			c109.52,0,212.06,44.95,288.72,126.57c77.6,82.62,122.14,196.4,125.44,320.41h301.34c0.07,0,0.13,0.06,0.13,0.13v265.93
			c0,0.07-0.06,0.13-0.13,0.13h-344.21C1275.92,917.03,1137.12,1009.93,971.2,1009.93z M881.35,859.07
			c0.04,0.01,0.07,0.04,0.08,0.08c0.25,0.7,25.43,70.13,101.26,125.78l0.03-0.78c0-0.07,0.06-0.12,0.13-0.12c0,0,0,0,0,0
			c0.07,0,0.12,0.06,0.12,0.13v0.76c75.84-55.65,101.2-124.3,101.44-124.99c0.01-0.04,0.04-0.07,0.08-0.08
			c0.01,0,0.03-0.01,0.04-0.01c0.03,0,0.05,0.01,0.07,0.02c12.04,8.43,21.67,10.2,27.63,10.2c3.34-0.04,5.19-0.59,5.21-0.59
			c23.17-35.12,35.23-86.47,41.26-123.42H807.25c5.99,36.59,17.99,87.52,41.18,122.64c0,0,0,0,0,0c0.09,0,1.61,0.44,4.28,0.51
			c0.35,0.01,0.73,0.02,1.12,0.02c5.85,0,15.36-1.76,27.41-10.15c0.02-0.01,0.05-0.02,0.07-0.02
			C881.32,859.06,881.34,859.06,881.35,859.07z M1152.14,897.6c-0.54,0.6-1.03,1.17-1.5,1.75
			C1151.14,898.83,1151.64,898.25,1152.14,897.6z M1171.61,746.06c1.92,14.16,2.47,28.37,1.63,42.23
			c-0.85,14.02-5.73,84.23-19.26,107.03c1.92-1.94,3.83-3.61,5.68-5.24c2.45-2.15,4.76-4.17,6.77-6.52
			c2.66-3.12,5.32-6.24,7.97-9.35c10.61-12.44,21.59-25.31,32.05-38.08c18.97-23.2,43.09-54.39,61.44-90.06H1171.61z M697.2,746.06
			c16.92,33.32,38.74,64.5,64.85,92.68c8.26,8.95,19.85,19.94,31.05,30.57c6.72,6.38,13.09,12.42,18.17,17.49
			c-17.56-36.21-18.02-58.15-18.51-81.37c-0.11-5.4-0.23-10.98-0.57-16.77c-0.81-14.08-0.28-28.42,1.59-42.6H697.2z M1316.6,510.24
			c-1.13-28.75-6.13-59.65-17.26-106.57c-14.19,4.35-27.23,8.32-42.42,12.92c1.41,35.42-3.02,66.92-13.16,93.64H1316.6z
			 M1211.89,510.24c3.25-7.95,5.62-16.43,7.04-25.2c2.42-14.66,4.09-29.29,5.87-44.78c0.79-6.87,1.6-13.97,2.5-21.17
			c-8.42,1.43-15.73,2.12-22.35,2.12c-15.82,0-28.9-3.93-41.14-12.37v42.18c-0.04,25.94-8.49,45.31-25.83,59.22H1211.89z
			 M827.66,510.24c-5.55-4.24-10.23-8.99-13.92-14.1c-6.67-9.29-10.23-20.21-10.58-32.46c-0.33-11.8-0.25-23.82-0.16-36.54
			c0.04-6.18,0.08-12.6,0.09-19.37c-12.87,9.18-26.52,13.46-42.93,13.46c-6.19,0-12.83-0.58-20.87-1.84
			c0.13,2.17,0.25,4.33,0.38,6.49c1.72,29.79,3.35,57.92,14.29,84.37H827.66z M721.71,510.24c-10.2-26.92-14.61-58.73-13.13-94.54
			c-2.57-0.59-5.02-1.11-7.38-1.6c-4.89-1.04-9.52-2.01-13.94-3.35c-4.57-1.39-9.1-3.18-13.89-5.09c-2.3-0.91-4.68-1.86-7.18-2.8
			c-10.66,45.6-15.41,77.74-15.87,107.38H721.71z M1081.04,410.41c-16.51,0-39.88,5.3-52.59,15.44c-2.14,1.69-3.95,3.5-5.37,5.37
			c-2.18,2.99-3.98,6.52-5.18,10.22c-0.7,7.26,0.72,13.03,4.23,17.13c4.48,5.25,10.97,5.96,11.7,6.03
			c7.01-9.13,16.32-12.98,16.41-13.01c0.5-0.36,2.26-1.3,2.84-1.57c8.28-4.1,15.21-8.94,23.23-14.55c3.2-2.23,6.5-4.54,10.07-6.93
			c0.02-0.01,0.04-0.02,0.07-0.02c0.03,0,0.07,0.01,0.09,0.04c0.04,0.04,0.04,0.11,0.01,0.16c-1.86,2.41-3.6,4.87-5.29,7.25
			c-3.77,5.33-7.33,10.36-11.88,14.37c-3.18,2.82-5.42,3.16-7.79,3.52c-2.17,0.33-4.4,0.67-7.51,3.05
			c21-1.23,32.41-10.29,39.32-31.19c1.67-4.97,2.5-8.09,2.98-13.39C1092.29,411.07,1086.99,410.41,1081.04,410.41z M838.85,428.51
			c0.02,0,0.05,0.01,0.07,0.02c3.57,2.38,6.87,4.69,10.07,6.93c8.03,5.61,14.96,10.46,23.24,14.56c0.6,0.28,2.34,1.21,2.86,1.58
			c0.07,0.02,9.37,3.87,16.38,13c0.72-0.06,7.22-0.78,11.7-6.03c3.5-4.1,4.92-9.87,4.22-17.15c-1.21-3.71-3.02-7.24-5.22-10.2
			c-1.39-1.87-3.19-3.68-5.37-5.37c-12.68-10.14-36.04-15.44-52.56-15.44c-5.95,0-11.25,0.66-15.34,1.92
			c0.43,5.15,1.27,8.3,2.98,13.39c6.92,20.9,18.33,29.96,39.32,31.19c-3.11-2.38-5.35-2.72-7.52-3.05
			c-2.38-0.36-4.62-0.71-7.82-3.52c-4.56-4.04-8.15-9.12-11.95-14.49c-1.65-2.34-3.36-4.75-5.18-7.13
			c-0.04-0.05-0.03-0.12,0.01-0.16C838.79,428.52,838.82,428.51,838.85,428.51z M654.56,378.92c28.62,15.7,56.66,23.67,83.34,23.67
			c31.71,0,50.49-11.56,51.57-12.25c8.05-64.41,42.11-92.56,42.46-92.84c15.4-13.48,31.35-20.31,47.4-20.31
			c49.17,0,84.72,63.47,88.62,70.71l0,0.09c0.02,0.01,0.05,0.02,0.06,0.04v-0.3c3.88-7.3,39.16-70.78,88.61-70.78
			c16.05,0,31.99,6.83,47.39,20.3c0.34,0.27,34.4,28.46,42.49,92.83c1.08,0.69,19.86,12.27,51.59,12.27
			c26.66,0,54.68-7.96,83.28-23.65c-0.2-2.69-5.49-69.12-43.48-125.17c-0.03-0.05-0.03-0.11,0.01-0.15
			c0.02-0.03,0.06-0.04,0.09-0.04c0.02,0,0.04,0,0.06,0.02c22.76,12.76,40.91,29.6,53.96,50.07
			c-2.76-9.82-28.79-94.25-108.96-103.22c-28.53-17.52-62.47-26.39-100.92-26.39c-34.35,0-72.85,7.1-114.45,21.11
			c-41.43-13.86-79.7-20.89-113.83-20.89c-38.43,0-72.39,8.88-100.93,26.38c-80.18,8.99-106.21,93.42-108.97,103.24
			c13.06-20.48,31.19-37.31,53.92-50.03c0.02-0.01,0.04-0.02,0.06-0.02c0.03,0,0.07,0.01,0.09,0.04c0.04,0.04,0.04,0.11,0.01,0.15
			C660.09,309.8,654.76,376.23,654.56,378.92z"/>
		<path class="st6" d="M971.2,48.4c224.45,0,407.23,188.43,414.04,446.99h301.46v265.93h-344.29
			c-67.73,158.37-208.54,248.48-371.21,248.48c-162.71,0-303.44-90.12-371.17-248.48H267.57V495.39H557.2
			C564.01,236.83,746.75,48.4,971.2,48.4 M967.65,194.79c-43.73-14.66-81.38-20.89-113.79-20.89c-41.77,0-74.84,10.36-101,26.4
			c-83.56,9.36-108.5,101.27-109.25,104.12c15.31-24.34,35.79-40.32,54.32-50.69c-39.01,57.58-43.5,125.27-43.5,125.27
			c33.23,18.25,61.5,23.72,83.47,23.72c32.93,0,51.69-12.3,51.69-12.3C797.71,325.26,832,297.6,832,297.6
			c16.68-14.6,32.61-20.29,47.32-20.29c49.4,0,85.01,64.15,88.5,70.64v0.34c0,0,0-0.07,0.07-0.19c0.15,0.26,0.22,0.41,0.22,0.41
			v-0.79c3.46-6.49,39.07-70.67,88.49-70.66c14.7,0,30.64,5.69,47.3,20.27c0,0,34.29,27.71,42.46,92.81c0,0,18.75,12.32,51.7,12.32
			c21.95,0,50.21-5.47,83.41-23.71c0,0-4.46-67.69-43.5-125.31c18.57,10.41,39.05,26.39,54.36,50.73
			c-0.75-2.85-25.68-94.76-109.29-104.12c-26.13-16.06-59.19-26.39-100.94-26.39C1049.56,173.67,1011.67,179.96,967.65,194.79
			 M650.2,510.36h71.7c-10.67-28.08-14.64-59.87-13.18-94.76c-8.01-1.83-14.86-3-21.42-4.98c-6.78-2.06-13.37-4.98-21.19-7.94
			C656.19,445.11,650.69,478.32,650.2,510.36 M1243.57,510.36h73.16c-1.24-31.94-7.34-64.88-17.3-106.85
			c-14.53,4.46-27.7,8.46-42.64,12.99C1258.17,451.02,1254.17,482.55,1243.57,510.36 M760.16,421.09c-6.89,0-13.87-0.74-21.01-1.86
			c1.91,32.09,2.92,62.67,14.71,91.13h74.17c-5.54-4.19-10.33-8.95-14.19-14.3c-6.36-8.87-10.18-19.51-10.56-32.39
			c-0.49-17.52-0.07-35.12-0.07-56.16C788.96,417.75,774.78,421.09,760.16,421.09 M1137.62,510.36h74.35
			c3.22-7.86,5.62-16.29,7.08-25.31c3.52-21.34,5.5-42.91,8.39-66.12c-7.83,1.33-15.3,2.15-22.49,2.15
			c-14.61,0-28.1-3.35-41.27-12.48v42.42C1163.64,476.29,1155.44,496.21,1137.62,510.36 M1033.88,464.72
			c7.08-9.25,16.4-13.03,16.4-13.03c0.52-0.37,2.28-1.31,2.85-1.57c11.64-5.77,20.93-13.22,33.32-21.49
			c-5.99,7.75-10.56,15.8-17.15,21.6c-6.22,5.5-8.91,1.5-15.61,6.81c20.93-1.12,32.68-9.7,39.84-31.3c1.65-4.9,2.51-8.09,3-13.52
			c-4.26-1.33-9.6-1.95-15.47-1.95c-17.84,0-40.56,5.8-52.67,15.47c-2.13,1.68-3.97,3.52-5.39,5.39c-2.13,2.92-3.97,6.48-5.2,10.26
			C1015.64,463.6,1033.88,464.72,1033.88,464.72 M871.61,457.05c-6.7-5.32-9.4-1.31-15.65-6.81c-6.55-5.8-11.16-13.85-17.11-21.6
			c12.39,8.27,21.68,15.72,33.32,21.49c0.56,0.26,2.32,1.2,2.85,1.57c0,0,9.32,3.78,16.4,13.03c0,0,18.23-1.12,16.1-23.32
			c-1.24-3.78-3.07-7.34-5.24-10.26c-1.39-1.87-3.22-3.71-5.39-5.39c-12.09-9.66-34.79-15.47-52.63-15.47
			c-5.87,0-11.21,0.63-15.47,1.95c0.45,5.43,1.35,8.61,3,13.52C838.93,447.35,850.69,455.93,871.61,457.05 M1149.64,900.44
			c1.27-1.05,2.47-2.47,3.63-4.23c4.72-4.94,9.51-8.2,13.25-12.58c13.48-15.84,26.99-31.52,40.02-47.44
			c23.17-28.34,44.74-57.54,61.55-90.27h-96.63c1.91,14,2.51,28.15,1.65,42.34c-1.68,27.82-7.26,88.43-19.84,107.94
			C1152.03,897.48,1150.8,898.87,1149.64,900.44 M853.83,869.35c5.61,0,15.27-1.67,27.48-10.17c0,0,24.6,69.64,101.5,125.98
			l0.04-1.01v1.01c76.9-56.35,101.69-125.2,101.69-125.2c12.35,8.65,22.13,10.22,27.7,10.22c3.41-0.04,5.24-0.6,5.24-0.6
			c23.17-35.08,35.23-86,41.37-123.66H807.11c6.14,37.59,18.23,88.02,41.22,122.84c0,0,1.53,0.49,4.38,0.56
			C853.06,869.35,853.44,869.35,853.83,869.35 M811.71,887.41c-22.05-45.15-17.6-68.21-19.39-98.76
			c-0.82-14.3-0.26-28.57,1.61-42.72H697c17.22,33.96,38.97,64.84,64.96,92.89C775.43,853.42,798.35,874.01,811.71,887.41
			 M971.2,48.15c-109.55,0-212.12,44.97-288.8,126.61c-37.93,40.39-68.02,88.03-89.44,141.61
			c-22.21,55.55-34.32,115.69-36.01,178.76H267.57c-0.14,0-0.25,0.11-0.25,0.25v265.93c0,0.14,0.11,0.25,0.25,0.25h332.3
			c16.67,38.94,38.08,74.44,63.66,105.55c25.05,30.46,54.09,56.72,86.34,78.04c31.96,21.14,67.01,37.4,104.16,48.33
			c37.37,10.99,76.8,16.57,117.19,16.57c40.38,0,79.81-5.57,117.18-16.57c37.15-10.93,72.2-27.19,104.17-48.33
			c32.25-21.33,61.3-47.58,86.36-78.04c25.58-31.1,47-66.61,63.67-105.55h344.13c0.14,0,0.25-0.11,0.25-0.25V495.39
			c0-0.14-0.11-0.25-0.25-0.25h-301.22c-1.69-63.07-13.81-123.21-36.02-178.76c-21.42-53.58-51.52-101.22-89.45-141.61
			C1183.33,93.12,1080.76,48.15,971.2,48.15L971.2,48.15z M967.65,195.04c0.03,0,0.05,0,0.08-0.01c41.58-14,80.08-21.1,114.41-21.1
			c38.43,0,72.35,8.87,100.81,26.36c0.03,0.02,0.07,0.03,0.1,0.04c43.23,4.84,70.37,32.25,85.53,54.4
			c14.57,21.27,21.33,42,23.08,47.91c-13.02-20.16-31.03-36.76-53.54-49.38c-0.04-0.02-0.08-0.03-0.12-0.03
			c-0.07,0-0.14,0.03-0.18,0.08c-0.08,0.09-0.09,0.21-0.02,0.31c20.15,29.73,30.89,62.18,36.36,84.17
			c5.62,22.61,6.96,39.08,7.09,40.86c-28.56,15.66-56.53,23.6-83.15,23.6c-31.29,0-49.97-11.28-51.47-12.22
			c-4.23-33.62-15.55-57.06-24.31-70.81c-9.51-14.93-18.14-21.98-18.22-22.05c-15.41-13.48-31.38-20.32-47.46-20.32
			c-20.79,0-41.53,11.09-61.67,32.98c-15.53,16.88-25.22,34.4-27.03,37.8c-4.5-8.31-39.86-70.53-88.59-70.53
			c-16.09,0-32.06,6.84-47.49,20.35c-0.08,0.06-8.71,7.11-18.21,22.03c-8.75,13.75-20.06,37.19-24.28,70.82
			c-1.5,0.94-20.18,12.2-51.45,12.2c-26.64,0-54.63-7.94-83.21-23.61c0.13-1.78,1.48-18.25,7.11-40.85
			c5.47-21.98,16.21-54.43,36.34-84.14c0.07-0.1,0.06-0.22-0.02-0.31c-0.05-0.05-0.12-0.08-0.18-0.08c-0.04,0-0.08,0.01-0.12,0.03
			c-22.48,12.58-40.47,29.17-53.5,49.34c1.74-5.91,8.51-26.64,23.07-47.91c15.16-22.14,42.29-49.56,85.5-54.4
			c0.04,0,0.07-0.02,0.1-0.04c28.53-17.49,62.46-26.36,100.87-26.36c34.12,0,72.38,7.03,113.71,20.88
			C967.59,195.03,967.62,195.04,967.65,195.04L967.65,195.04z M650.45,510.11c0.47-29.57,5.21-61.63,15.84-107.09
			c2.45,0.93,4.78,1.86,7.04,2.75c4.79,1.9,9.32,3.7,13.9,5.09c4.43,1.34,9.05,2.32,13.95,3.36c2.34,0.49,4.75,1,7.28,1.58
			c-1.47,35.71,2.93,67.44,13.07,94.31H650.45L650.45,510.11z M1257.05,416.69c15.06-4.57,28.03-8.51,42.2-12.86
			c11.09,46.77,16.09,77.61,17.22,106.28h-72.53C1254.03,483.44,1258.44,452.01,1257.05,416.69L1257.05,416.69z M760.16,421.34
			c16.36,0,29.97-4.24,42.8-13.34c0,6.69-0.04,13.01-0.09,19.13c-0.09,12.72-0.17,24.74,0.16,36.55
			c0.36,12.27,3.92,23.21,10.6,32.52c3.63,5.04,8.22,9.71,13.65,13.91h-73.26c-10.9-26.4-12.53-54.5-14.24-84.24
			c-0.12-2.11-0.24-4.22-0.37-6.34C747.41,420.77,754,421.34,760.16,421.34L760.16,421.34z M1138.33,510.11
			c17.18-13.91,25.56-33.25,25.6-59.09v-41.94c12.21,8.36,25.26,12.25,41.02,12.25c6.58,0,13.85-0.69,22.2-2.09
			c-0.89,7.14-1.69,14.19-2.47,21c-1.78,15.49-3.45,30.11-5.87,44.77c-1.41,8.73-3.77,17.18-7,25.1H1138.33L1138.33,510.11z
			 M1018.02,441.45c1.2-3.68,2.99-7.19,5.16-10.16c1.41-1.86,3.21-3.66,5.34-5.34c12.69-10.12,36.02-15.41,52.51-15.41
			c5.89,0,11.14,0.65,15.2,1.88c-0.48,5.22-1.31,8.33-2.96,13.26c-6.85,20.7-18.12,29.76-38.8,31.08c2.91-2.13,5.05-2.46,7.12-2.78
			c2.39-0.37,4.64-0.71,7.85-3.55c4.56-4.01,8.12-9.05,11.89-14.39c1.68-2.38,3.42-4.84,5.28-7.25c0.07-0.1,0.07-0.23-0.02-0.32
			c-0.05-0.05-0.12-0.08-0.18-0.08c-0.05,0-0.1,0.01-0.14,0.04c-3.57,2.38-6.87,4.69-10.07,6.93c-8.02,5.61-14.95,10.45-23.22,14.55
			c-0.52,0.24-2.27,1.17-2.86,1.58c-0.57,0.24-9.56,4.12-16.39,12.99c-0.98-0.1-7.21-0.9-11.55-5.98
			C1018.74,454.41,1017.33,448.68,1018.02,441.45L1018.02,441.45z M829.05,412.41c4.06-1.23,9.31-1.88,15.2-1.88
			c16.5,0,39.82,5.29,52.48,15.41c2.17,1.68,3.97,3.48,5.35,5.34c2.18,2.94,3.98,6.45,5.2,10.16c0.69,7.24-0.72,12.97-4.19,17.03
			c-4.34,5.08-10.57,5.88-11.54,5.98c-6.84-8.87-15.82-12.75-16.39-12.99c-0.59-0.41-2.34-1.34-2.86-1.58
			c-8.27-4.09-15.2-8.94-23.22-14.55c-3.19-2.23-6.5-4.54-10.07-6.93c-0.04-0.03-0.09-0.04-0.14-0.04c-0.07,0-0.13,0.03-0.18,0.08
			c-0.08,0.09-0.09,0.23-0.02,0.32c1.82,2.37,3.53,4.79,5.18,7.12c3.8,5.38,7.4,10.47,11.96,14.52c3.23,2.84,5.49,3.19,7.88,3.55
			c2.07,0.32,4.21,0.64,7.13,2.78c-20.67-1.32-31.94-10.38-38.8-31.08C830.32,420.63,829.48,417.49,829.05,412.41L829.05,412.41z
			 M1086.44,428.88L1086.44,428.88L1086.44,428.88L1086.44,428.88z M1171.75,746.18h95.93c-18.33,35.58-42.4,66.7-61.33,89.86
			c-10.48,12.79-21.47,25.68-32.1,38.14c-2.64,3.09-5.28,6.19-7.92,9.29c-2,2.34-4.31,4.37-6.76,6.51c-1.65,1.44-3.34,2.93-5.04,4.6
			c13.22-23.68,17.99-92.43,18.83-106.29C1174.2,774.47,1173.66,760.3,1171.75,746.18L1171.75,746.18z M807.4,746.18h351.15
			c-6.03,36.9-18.08,88.1-41.23,123.2c-0.39,0.11-2.16,0.53-5.09,0.56c-5.94,0-15.54-1.77-27.56-10.18
			c-0.04-0.03-0.09-0.05-0.14-0.05c-0.03,0-0.05,0-0.08,0.01c-0.07,0.02-0.13,0.08-0.16,0.15c-0.06,0.17-6.37,17.47-21.99,41.43
			c-14.36,22.04-39.75,54.35-79.21,83.36v-0.52c0-0.14-0.11-0.25-0.25-0.25c0,0,0,0,0,0c-0.13,0-0.24,0.11-0.25,0.24l-0.02,0.54
			c-39.47-29.01-64.81-61.54-79.13-83.76c-15.57-24.15-21.83-41.65-21.9-41.82c-0.03-0.07-0.08-0.13-0.16-0.15
			c-0.03-0.01-0.05-0.01-0.08-0.01c-0.05,0-0.1,0.02-0.14,0.04c-12.02,8.37-21.5,10.12-27.33,10.12c-0.39,0-0.76-0.01-1.12-0.02
			c-2.41-0.06-3.88-0.43-4.23-0.53C825.37,833.5,813.39,782.72,807.4,746.18L807.4,746.18z M697.41,746.18h96.24
			c-1.85,14.15-2.38,28.44-1.57,42.48c0.34,5.79,0.46,11.37,0.57,16.77c0.48,23.09,0.94,44.92,18.2,80.76
			c-5-4.97-11.16-10.82-17.66-16.98c-11.2-10.63-22.78-21.61-31.04-30.56C736.08,810.53,714.31,779.42,697.41,746.18L697.41,746.18z
			"/>
	</g>
	<g>
		<path class="st2" d="M404.95,536.44c0.15,0.46,0.22,1.09,0.22,1.89c0,0.57-0.22,1.93-0.67,4.08c-0.45,2.15-0.67,4.08-0.67,5.8
			c0,1.77,0.37,5.9,1.12,12.37c0.75,6.47,1.12,12.37,1.12,17.69c0,11.74-2.06,23.09-6.17,34.05c-4.11,10.96-9.2,19.32-15.26,25.08
			c-6.06,5.75-15.97,12.84-29.73,21.26c-2.62,1.09-3.93,2.03-3.93,2.83v0.17c-2.39,1.26-4.15,1.89-5.27,1.89
			c-0.9,0-1.59-0.26-2.08-0.77c-0.49-0.52-1.03-2.52-1.63-6.01c-2.77-0.86-4.15-2.63-4.15-5.32c0-0.97,0.95-1.82,2.86-2.53
			c1.91-0.72,6.45-1.62,13.63-2.71c5.98-2.29,9.01-3.44,9.09-3.44c2.99-1.03,6.45-3.45,10.38-7.26c3.93-3.81,7.05-7.86,9.37-12.15
			c2.32-4.29,4.17-9.06,5.55-14.3s2.36-10.96,2.92-17.18s0.84-13.21,0.84-21c0-7.5-0.9-15.66-2.69-24.48
			c-1.42-3.49-2.13-5.58-2.13-6.27c0-0.52,0.07-0.8,0.22-0.86c0-1.55,1.01-2.55,3.03-3.01l7.29-1.63c2.84-0.69,4.56-1.03,5.16-1.03
			c0.22,0.17,0.36,0.6,0.39,1.29C403.81,535.58,404.2,536.1,404.95,536.44z"/>
		<path class="st2" d="M521.95,576.03c1.27-0.74,3.1-1.32,5.5-1.72l6.84-1.12h0.79c1.5,0,2.24,1.46,2.24,4.38l-3.7,9.28
			c-1.2,3.09-2.06,6.04-2.58,8.85c-0.52,2.81-0.79,5.5-0.79,8.07c0,2.63,0.26,5.43,0.79,8.37c0.52,2.95,1.87,5.48,4.04,7.6
			c0.15,0.29,0.22,0.66,0.22,1.12c0,0.57-0.62,1.56-1.85,2.96c-1.23,1.4-1.85,3.28-1.85,5.63c0,1.26,0.32,3.31,0.95,6.14
			c0.64,2.83,0.97,4.58,1.01,5.24c0.04,0.66,0.6,1.29,1.68,1.89c1.08,0.6,1.63,1.04,1.63,1.33c0,0.46-0.6,0.86-1.79,1.2
			c-0.3,2.81-0.45,4.52-0.45,5.15c0,2.12,0.37,3.29,1.12,3.52c-5.16,1.6-9.01,2.4-11.55,2.4c-3.07,0-4.6-0.97-4.6-2.92
			c0-0.57,0.26-1.4,0.79-2.49c-0.22-0.34-0.34-0.8-0.34-1.37c0-1.09,0.21-1.95,0.62-2.58s0.62-1.26,0.62-1.89
			c0-1.15-0.22-2.75-0.67-4.81s-1.83-3.09-4.15-3.09c-1.72,0-4.94,1.63-9.65,4.9c-7.1,4.81-13.39,8.27-18.84,10.39
			c-2.32,0.63-3.85,1.23-4.6,1.8c-10.62,1.26-16.15,1.89-16.6,1.89c-1.87,0-4.28-0.82-7.24-2.45s-5.35-3.25-7.18-4.85
			s-3.44-4.08-4.82-7.43c-1.38-3.35-2.08-7.11-2.08-11.29c0-1.83,0.93-8.16,2.8-18.98s3.33-18.57,4.37-23.23s1.57-7.11,1.57-7.34
			c0-0.46-0.26-1.17-0.79-2.15l-0.9-1.37v-0.34c0-0.4,0.37-0.69,1.12-0.86c0.75-0.17,2.18-0.66,4.3-1.46c2.12-0.8,3.77-1.2,4.96-1.2
			c0.52,0,1.58,0.2,3.18,0.6c1.6,0.4,2.95,0.6,4.07,0.6h0.67c1.41,0.86,2.34,1.75,2.79,2.66l-2.36,2.06
			c-4.26,2.98-6.99,7.39-8.16,13.23l-3.65,18.47c-1.4,6.41-2.1,10.99-2.1,13.74c0,8.02,2.04,13.89,6.11,17.61
			c4.08,3.72,8.1,5.58,12.06,5.58l1.91-0.17l3.37,0.17c1.12,0,3.33-0.64,6.62-1.93c3.29-1.29,8.13-3.61,14.53-6.96
			c6.39-3.35,10.28-5.81,11.67-7.39s2.6-3.58,3.65-6.01s1.83-5.22,2.36-8.37c0.52-3.15,0.79-6.64,0.79-10.48
			c0-9.62-0.28-16.1-0.84-19.45c-0.56-3.35-1.51-5.37-2.86-6.06c-0.97-0.57-1.46-2.09-1.46-4.55c1.2-0.34,2.04-0.64,2.52-0.9
			c0.49-0.26,0.95-0.39,1.4-0.39C519.96,575.26,520.9,575.52,521.95,576.03z"/>
		<path class="st2" d="M624.81,580.07c4.86-0.63,8.94-0.94,12.23-0.94c20.34,0,30.51,9.73,30.51,29.2c0,10.82-2.32,23.33-6.95,37.53
			c-2.09,6.13-3.14,10.22-3.14,12.28c0,0.46,0.15,0.92,0.45,1.37c-0.9,3.55-3.63,5.33-8.19,5.33c-2.69,0-5.14-0.57-7.35-1.72
			c-2.21-1.15-3.31-2.35-3.31-3.61c0-1.89,1.57-4.24,4.71-7.04c3.14-2.81,6.02-8.27,8.64-16.4c2.62-8.13,3.93-16.32,3.93-24.56
			c0-16.89-9.05-25.34-27.15-25.34c-7.1,0-13.78,1.12-20.02,3.35c-6.24,2.23-9.82,4.7-10.71,7.39c-0.67,0.57-1.68,1.15-3.03,1.72
			c-1.2,0.46-1.89,0.87-2.08,1.25c-0.19,0.37-0.58,4.71-1.18,13.01c-0.6,8.3-0.9,14.6-0.9,18.9v4.04c0,2.12,0.47,4.07,1.4,5.84
			c0.93,1.77,1.4,2.81,1.4,3.09l-0.22,3.01c0,1.89-0.43,3.39-1.29,4.51s-1.96,1.67-3.31,1.67h-0.45l-0.67,1.2
			c-0.9-0.23-1.53-0.34-1.91-0.34c-1.05,0-2.39,0.46-4.04,1.37h-0.56c-0.82,0-2.09-0.74-3.81-2.23c-2.47,0-3.7-0.72-3.7-2.15
			c0-1.26,0.52-2.32,1.57-3.18c0.97,0,2.09-3.76,3.37-11.29c1.27-7.53,1.91-17.08,1.91-28.64c0-15-1.61-23.56-4.82-25.68l-0.22-1.55
			c0-2.18,1.65-3.64,4.94-4.38c1.35-0.29,2.56-1.06,3.65-2.32c1.08-1.26,2.22-1.89,3.42-1.89h0.22c1.5-0.17,2.79-0.46,3.87-0.86
			c1.08-0.4,1.7-0.6,1.85-0.6c1.05,0,1.57,1.12,1.57,3.35c0,1.72-0.45,3.68-1.35,5.88c-0.9,2.2-1.35,3.59-1.35,4.17
			c0,0.86,0.39,1.6,1.18,2.23c0.79,0.63,1.78,0.94,2.97,0.94h0.67c2.09-1.55,3.22-2.32,3.37-2.32h0.34c7.18,0,12.6-1.12,16.26-3.35
			c0.67-0.06,1.5-0.16,2.47-0.3c0.97-0.14,1.61-0.21,1.91-0.21C623.68,580.93,624.66,580.36,624.81,580.07z"/>
		<path class="st2" d="M784.54,570.37c-1.72,6.18-2.58,16.32-2.58,30.4c0,4.58,0.34,11.77,1.01,21.56s1.01,18.44,1.01,25.94
			c0,14.31-1.83,25.75-5.5,34.31c-3.66,8.56-6.66,12.84-8.97,12.84l-0.67-0.17c-1.94,4.24-6.81,7.09-14.58,8.55
			c-7.78,1.46-13.46,2.19-17.05,2.19c-1.57,0-3.81-0.17-6.73-0.52c-2.92-0.34-5.05-0.52-6.39-0.52c-1.57,0-2.65,0.06-3.25,0.17
			c-1.05,0.8-2.17,1.2-3.37,1.2c-0.9,0-1.61-0.29-2.13-0.86c-0.67,0.69-1.83,1.03-3.48,1.03l-2.02-0.17c-0.22,0-0.73,0.09-1.51,0.26
			c-0.79,0.17-1.29,0.26-1.51,0.26c-0.75,0-1.66-0.36-2.75-1.07c-1.08-0.72-1.63-1.93-1.63-3.65c0-0.97,0.13-2.18,0.39-3.61
			c0.26-1.43,0.39-2.4,0.39-2.92v-1.89c0-0.69,0.52-1.52,1.57-2.49h0.9c1.57,0,4.04,0.77,7.4,2.32c8,3.61,16.19,5.41,24.57,5.41
			c6.51,0,11.63-1,15.37-3.01c4.64-0.17,7.1-1.35,7.4-3.52c1.27-0.4,3.5-3.31,6.67-8.72c3.18-5.41,4.77-13.7,4.77-24.86v-2.49
			c-1.12-1.49-3.1-2.23-5.95-2.23c-1.5,0-3.33,0.17-5.5,0.52s-4.19,0.52-6.06,0.52c-3.22,0-7.95-0.3-14.19-0.9
			s-11.14-1.27-14.69-2.02c-3.55-0.74-7.89-2.29-13.01-4.64c-5.12-2.35-8.77-4.72-10.94-7.13c-2.17-2.4-3.93-5.21-5.27-8.42
			c-1.35-3.21-2.02-6.53-2.02-9.96c0-6.58,2.34-12.75,7.01-18.51c4.67-5.75,11.42-10.72,20.25-14.9c0.75-0.17,1.42-0.63,2.02-1.37
			c1.5-1.95,7.29-3.78,17.39-5.5l13.24-2.66h0.22c0.97,0,5.5-1.17,13.57-3.52l1.57,1.46c0.52-0.92,0.79-2.86,0.79-5.84v-3.86h2.02
			C779.19,567.36,783.27,568.36,784.54,570.37z M762.89,642.34c0.22,0.69,1.01,1.03,2.36,1.03c4.26,0,6.39-3.75,6.39-11.25
			l-1.91-39.42l0.56-2.83c0-3.95-3.55-5.93-10.66-5.93c-5.31,0-11.65,0.74-19.01,2.23c-7.37,1.49-14,4.37-19.91,8.63
			c-5.91,4.27-9.89,8.4-11.95,12.41s-3.08,7.96-3.08,11.85c0,5.15,2.21,9.73,6.62,13.74c4.41,4.01,9.83,7.16,16.26,9.45
			s15.74,3.44,27.93,3.44c0.82,0,1.68-0.11,2.58-0.34C759.97,645.12,761.24,644.11,762.89,642.34z"/>
		<path class="st2" d="M843.43,649.72c-0.67,1.78-1.25,2.89-1.74,3.35c-0.49,0.46-1.66,0.74-3.53,0.86
			c-0.9,0.69-1.72,1.03-2.47,1.03c-0.6,0-1.23-0.34-1.91-1.03c-0.97,0.74-2.24,1.37-3.81,1.89c-5.83-1.26-8.75-2.89-8.75-4.9v-0.17
			c1.2,0,1.79-0.83,1.79-2.49v-1.55l-0.22-2.83c0-0.4,0.45-1.75,1.35-4.04c1.12-6.07,1.68-14.29,1.68-24.65v-17.61l-0.22-6.61
			l0.22-5.67l-1.35-19.84l0.9-13.74l-0.9-17.78v-3.35c-0.97-1.95-1.46-3.86-1.46-5.75l0.45-3.69c0-0.4-0.3-0.94-0.9-1.63
			c0-3.09,0.65-5.54,1.96-7.34c1.31-1.8,2.92-3.19,4.82-4.17c1.91-0.97,3.8-1.46,5.66-1.46c3.22,0,6.02,2.4,8.41,7.21
			c-1.72,1.66-3.1,3.31-4.15,4.94s-1.57,4.02-1.57,7.17l0.45,9.88l-0.45,24.56l0.22,33.58l-0.45,38.22l0.22,1.55
			c0,0.92-0.3,1.52-0.9,1.8c1.12,0.74,1.85,2.51,2.19,5.28c0.34,2.78,1.08,4.85,2.24,6.23C842.4,648.35,843.13,649.27,843.43,649.72
			z"/>
		<path class="st2" d="M957.84,599.74c0.6,0.46,0.9,1.12,0.9,1.98c0,1.66-0.6,2.89-1.79,3.69c0.15,0.06,0.22,0.23,0.22,0.52
			c0,0.92-1.61,1.37-4.82,1.37h-1.57c-0.45,0-0.9,0.2-1.35,0.6c-0.45,0.4-0.79,0.6-1.01,0.6c-0.07,0-0.43-0.17-1.07-0.52
			c-0.64-0.34-1.59-0.57-2.86-0.69l-1.35-1.03c-1.65,0.34-3.25,0.52-4.82,0.52c-1.2,0-2.86-0.11-4.99-0.34
			c-2.13-0.23-3.68-0.34-4.66-0.34c-0.82,0-2.56,0.17-5.22,0.52c-2.65,0.34-4.99,0.52-7.01,0.52l-10.99-0.34
			c-5.91,0-11.25,0.4-16.04,1.2c-0.67,0.29-1.66,0.5-2.97,0.64c-1.31,0.14-2.02,0.6-2.13,1.37c-0.11,0.77-0.88,1.39-2.3,1.85
			c-0.75,2.35-1.12,4.47-1.12,6.36c0,1.49,0.56,4.32,1.68,8.5c1.12,4.18,2.62,7.16,4.49,8.93c0.45,0.4,3.66,2.23,9.65,5.5
			c3.81,2.18,7.95,3.82,12.39,4.94s9.59,1.67,15.42,1.67c2.32,0,5.2-0.14,8.64-0.43l4.71-0.43h7.29c0.75,0,2.15-0.52,4.21-1.55
			c2.06-1.03,4.13-1.63,6.23-1.8c0.9,1.6,1.35,3.01,1.35,4.21c0,2.69-1.07,5.04-3.2,7.04c-2.13,2-4.58,3.01-7.35,3.01l-2.36-0.34
			l-7.07,0.17h-6.06c-2.84,0-9.83-0.92-20.98-2.75c-11.14-1.83-19.37-4.24-24.68-7.21c-5.31-2.98-9.2-6.83-11.67-11.55
			c-2.47-4.72-3.7-9.29-3.7-13.7c0-5.95,1.5-12.01,4.49-18.17c2.99-6.16,6.39-10.94,10.21-14.34c3.81-3.41,9.61-6.94,17.39-10.61
			c0.75-0.29,1.89-0.87,3.42-1.76s3.01-1.33,4.43-1.33l3.7,0.17c1.57-0.8,4.39-1.47,8.47-2.02s7.38-0.82,9.93-0.82
			c4.56,0,9.55,1.29,14.97,3.86c5.42,2.58,8.69,7.96,9.81,16.15c0.22,1.43,0.54,2.59,0.95,3.48c0.41,0.89,0.62,1.39,0.62,1.5
			C958.29,598.88,958.14,599.28,957.84,599.74z M911.85,580.93c-0.45,0.52-2.58,1.46-6.39,2.83c-1.87,1.03-3.66,2.2-5.38,3.52
			c-1.72,1.32-3.4,2.73-5.05,4.25c-1.65,1.52-3.08,2.88-4.32,4.08c-1.23,1.2-2.19,2.1-2.86,2.71c-0.67,0.6-1.01,1.13-1.01,1.59
			c0,0.63,0.52,1.09,1.57,1.37l1.46,0.43h8.3l39.04-1.12c5.01,0,7.52-1.69,7.52-5.07c0-3.55-0.92-6.66-2.75-9.32
			c-1.83-2.66-6.64-4.77-14.41-6.31c-0.9,0-2.17-0.06-3.81-0.17s-2.84-0.17-3.59-0.17C919.48,579.56,916.71,580.01,911.85,580.93z"
			/>
		<path class="st2" d="M1099.29,584.02c13.31,3.55,22.85,7.73,28.6,12.57c5.76,4.83,8.64,11.42,8.64,19.77
			c0,11.84-7.59,21.96-22.77,30.37h-2.47c-1.35,1.09-2.71,1.98-4.09,2.66c-1.38,0.69-2.22,1.03-2.52,1.03
			c-0.37,0-0.71-0.22-1.01-0.68c0,0.29-0.88,0.77-2.64,1.46c-1.76,0.69-5.23,1.35-10.43,1.98c-5.2,0.63-7.87,0.94-8.02,0.94
			c-1.27,0-2.13-0.06-2.58-0.17l-2.47,1.88l-3.25-0.86c-0.97,0.57-2.02,0.86-3.14,0.86c-1.12,0-1.91-0.11-2.36-0.34
			c-1.87,0.17-5.16,0.27-9.87,0.3s-8.23,0.16-10.54,0.39c0.45-0.69,0.67-1.77,0.67-3.26l-0.22-3.01l1.46-9.45
			c0.52-3.15,0.88-6.33,1.07-9.53c0.19-3.21,0.32-6.38,0.39-9.53c0.07-3.15,0.11-6.73,0.11-10.74v-6.01l1.12-34.1
			c0-10.71-0.62-18.52-1.85-23.45c-1.23-4.92-1.85-7.96-1.85-9.1c0-3.38,2.92-5.07,8.75-5.07l2.24-1.8
			c1.94,0.97,4.11,1.75,6.51,2.32c13.68,0.57,24.32,1.55,31.91,2.92c7.59,1.38,13.31,3.97,17.16,7.79s5.78,8.76,5.78,14.84v1.04
			C1119.29,568.68,1111.85,576.68,1099.29,584.02z M1083.33,649.81c0.74,0.11,1.83,0.17,3.25,0.17c4.47,0,9.96-1.49,16.45-4.47
			c6.49-2.98,11.61-7.07,15.34-12.26c3.73-5.19,5.6-10.59,5.6-16.21c0-6.77-3.73-12.68-11.19-17.76c-7.47-5.08-17.65-7.9-30.57-8.47
			c-0.6,0.29-1.68,0.92-3.25,1.89c-1.94-1.67-4.14-2.5-6.61-2.5c-4.78,0-7.17,2.95-7.17,8.86l0.22,6.88c0,1.43-0.22,3.28-0.67,5.54
			c-0.45,2.27-0.67,3.8-0.67,4.6c0,0.97,0.15,2.52,0.45,4.64c0.3,2.12,0.45,3.76,0.45,4.91c0,1.49-0.15,3.61-0.45,6.37
			c-0.3,2.75-0.45,4.79-0.45,6.1c0,0.86,0.19,2.04,0.56,3.53l0.56,2.15l-0.45,2.15c0,2.7,2.31,4.04,6.94,4.04
			c1.42,0,3.12,0.26,5.1,0.77c1.98,0.52,3.41,0.77,4.31,0.77L1083.33,649.81z M1083.09,581.62c0.59-0.11,1.45-0.17,2.57-0.17
			l3.13,0.17c1.86,0,5.35-2.1,10.46-6.31c5.1-4.21,7.66-8.72,7.66-13.53c0-1.77-0.22-3.46-0.67-5.07c-0.45-1.6-1.12-3.16-2.02-4.68
			c-0.89-1.52-1.99-2.98-3.3-4.38c-1.31-1.4-2.72-2.59-4.26-3.56c-1.53-0.97-2.85-1.57-3.97-1.8l-11.07-2.4
			c-3.51-0.8-5.86-1.2-7.05-1.2c-4.18,0-6.86,1.33-8.06,3.99c-1.19,2.66-1.79,7.31-1.79,13.96l1.12,18.47
			c0,3.84,0.21,6.41,0.62,7.73c0.41,1.32,1.51,1.98,3.3,1.98l1.45-0.17l2.69,0.34c1.71,0,2.94-0.52,3.69-1.55l2.46,0.17l2.35-0.17
			L1083.09,581.62z"/>
		<path class="st2" d="M1243.2,576.03c1.27-0.74,3.1-1.32,5.5-1.72l6.84-1.12h0.79c1.5,0,2.24,1.46,2.24,4.38l-3.7,9.28
			c-1.2,3.09-2.06,6.04-2.58,8.85c-0.52,2.81-0.79,5.5-0.79,8.07c0,2.63,0.26,5.43,0.79,8.37c0.52,2.95,1.87,5.48,4.04,7.6
			c0.15,0.29,0.22,0.66,0.22,1.12c0,0.57-0.62,1.56-1.85,2.96c-1.23,1.4-1.85,3.28-1.85,5.63c0,1.26,0.32,3.31,0.95,6.14
			c0.64,2.83,0.97,4.58,1.01,5.24c0.04,0.66,0.6,1.29,1.68,1.89c1.08,0.6,1.63,1.04,1.63,1.33c0,0.46-0.6,0.86-1.79,1.2
			c-0.3,2.81-0.45,4.52-0.45,5.15c0,2.12,0.37,3.29,1.12,3.52c-5.16,1.6-9.01,2.4-11.55,2.4c-3.07,0-4.6-0.97-4.6-2.92
			c0-0.57,0.26-1.4,0.79-2.49c-0.22-0.34-0.34-0.8-0.34-1.37c0-1.09,0.21-1.95,0.62-2.58c0.41-0.63,0.62-1.26,0.62-1.89
			c0-1.15-0.22-2.75-0.67-4.81c-0.45-2.06-1.83-3.09-4.15-3.09c-1.72,0-4.94,1.63-9.65,4.9c-7.1,4.81-13.39,8.27-18.84,10.39
			c-2.32,0.63-3.85,1.23-4.6,1.8c-10.62,1.26-16.15,1.89-16.6,1.89c-1.87,0-4.28-0.82-7.24-2.45s-5.35-3.25-7.18-4.85
			c-1.83-1.6-3.44-4.08-4.82-7.43c-1.38-3.35-2.08-7.11-2.08-11.29c0-1.83,0.93-8.16,2.8-18.98s3.33-18.57,4.37-23.23
			c1.05-4.67,1.57-7.11,1.57-7.34c0-0.46-0.26-1.17-0.79-2.15l-0.9-1.37v-0.34c0-0.4,0.37-0.69,1.12-0.86
			c0.75-0.17,2.18-0.66,4.3-1.46c2.12-0.8,3.77-1.2,4.96-1.2c0.52,0,1.58,0.2,3.18,0.6c1.6,0.4,2.95,0.6,4.07,0.6h0.67
			c1.41,0.86,2.34,1.75,2.79,2.66l-2.36,2.06c-4.26,2.98-6.99,7.39-8.16,13.23l-3.65,18.47c-1.4,6.41-2.1,10.99-2.1,13.74
			c0,8.02,2.04,13.89,6.11,17.61s8.09,5.58,12.06,5.58l1.91-0.17l3.37,0.17c1.12,0,3.33-0.64,6.62-1.93
			c3.29-1.29,8.13-3.61,14.53-6.96c6.39-3.35,10.28-5.81,11.67-7.39c1.38-1.57,2.6-3.58,3.65-6.01s1.83-5.22,2.36-8.37
			s0.79-6.64,0.79-10.48c0-9.62-0.28-16.1-0.84-19.45c-0.56-3.35-1.51-5.37-2.86-6.06c-0.97-0.57-1.46-2.09-1.46-4.55
			c1.2-0.34,2.04-0.64,2.52-0.9c0.49-0.26,0.95-0.39,1.4-0.39C1241.22,575.26,1242.16,575.52,1243.2,576.03z"/>
		<path class="st2" d="M1346.07,580.07c4.86-0.63,8.94-0.94,12.23-0.94c20.34,0,30.51,9.73,30.51,29.2
			c0,10.82-2.32,23.33-6.95,37.53c-2.09,6.13-3.14,10.22-3.14,12.28c0,0.46,0.15,0.92,0.45,1.37c-0.9,3.55-3.63,5.33-8.19,5.33
			c-2.69,0-5.14-0.57-7.35-1.72c-2.21-1.15-3.31-2.35-3.31-3.61c0-1.89,1.57-4.24,4.71-7.04c3.14-2.81,6.02-8.27,8.64-16.4
			s3.93-16.32,3.93-24.56c0-16.89-9.05-25.34-27.15-25.34c-7.1,0-13.78,1.12-20.02,3.35c-6.24,2.23-9.81,4.7-10.71,7.39
			c-0.67,0.57-1.68,1.15-3.03,1.72c-1.2,0.46-1.89,0.87-2.08,1.25c-0.19,0.37-0.58,4.71-1.18,13.01s-0.9,14.6-0.9,18.9v4.04
			c0,2.12,0.47,4.07,1.4,5.84c0.93,1.77,1.4,2.81,1.4,3.09l-0.22,3.01c0,1.89-0.43,3.39-1.29,4.51s-1.96,1.67-3.31,1.67h-0.45
			l-0.67,1.2c-0.9-0.23-1.53-0.34-1.91-0.34c-1.05,0-2.39,0.46-4.04,1.37h-0.56c-0.82,0-2.09-0.74-3.81-2.23
			c-2.47,0-3.7-0.72-3.7-2.15c0-1.26,0.52-2.32,1.57-3.18c0.97,0,2.09-3.76,3.37-11.29s1.91-17.08,1.91-28.64
			c0-15-1.61-23.56-4.82-25.68l-0.22-1.55c0-2.18,1.65-3.64,4.94-4.38c1.35-0.29,2.56-1.06,3.65-2.32c1.08-1.26,2.22-1.89,3.42-1.89
			h0.22c1.5-0.17,2.79-0.46,3.87-0.86c1.08-0.4,1.7-0.6,1.85-0.6c1.05,0,1.57,1.12,1.57,3.35c0,1.72-0.45,3.68-1.35,5.88
			s-1.35,3.59-1.35,4.17c0,0.86,0.39,1.6,1.18,2.23c0.79,0.63,1.78,0.94,2.97,0.94h0.67c2.09-1.55,3.22-2.32,3.37-2.32h0.34
			c7.18,0,12.6-1.12,16.26-3.35c0.67-0.06,1.5-0.16,2.47-0.3c0.97-0.14,1.61-0.21,1.91-0.21
			C1344.94,580.93,1345.92,580.36,1346.07,580.07z"/>
		<path class="st2" d="M1495.14,641.57c3.51,1.66,5.27,3.89,5.27,6.7c0,3.66-1.27,5.5-3.81,5.5h-1.01c-0.67,0-3.08,0.31-7.24,0.94
			c-4.15,0.63-8.69,0.94-13.63,0.94h-2.8l-7.96,0.34c-2.92,0-5.61-0.23-8.08-0.69c-1.2-0.4-4.06-1.15-8.58-2.23
			c-4.52-1.09-7.61-2.02-9.25-2.79c-1.65-0.77-3.72-2.03-6.23-3.78c-2.51-1.75-4.69-3.62-6.56-5.63s-3.46-4.15-4.77-6.44
			c-1.31-2.29-2.28-4.7-2.92-7.21s-0.95-5.12-0.95-7.82c0-8.02,1.87-14.84,5.61-20.48c3.74-5.64,9.83-10.69,18.28-15.16
			c1.27-0.52,3.07-1.39,5.38-2.62s4.15-2.06,5.5-2.49s5.31-1.1,11.89-2.02s13.24-1.37,19.97-1.37h4.15c1.35-0.23,2.88-0.34,4.6-0.34
			c3.51,0,5.27,1.17,5.27,3.52c0,0.4-0.11,1.02-0.34,1.85c-0.22,0.83-0.34,1.45-0.34,1.85l0.22,6.53c-1.2,0.23-2.06,0.34-2.58,0.34
			c-1.79,0-4-0.46-6.62-1.37c-2.92-2-5.31-3.01-7.18-3.01h-1.57c-0.9,0-2.95-0.23-6.17-0.69s-6.13-0.69-8.75-0.69
			c-1.94,0-4.41,0.69-7.4,2.06c-0.9-0.34-1.65-0.52-2.24-0.52h-0.45c-0.3,0-0.79,0.23-1.46,0.69c-2.54,1.77-5.98,3.24-10.32,4.38
			c-3.29,0.97-6.06,3.12-8.3,6.44c-2.24,3.32-4.45,5.81-6.62,7.47c-0.6,3.61-0.9,6.96-0.9,10.05c0,6.99,1.01,12.01,3.03,15.07
			s4.86,5.85,8.53,8.37c3.66,2.52,6.17,4.38,7.52,5.58h3.25c0.75,1.6,2.51,2.4,5.27,2.4c1.57,0,3.87,0.27,6.9,0.82
			c3.03,0.54,5.33,0.82,6.9,0.82l3.37-0.17h2.58c3.81,0,6.71-0.26,8.69-0.77s4.39-0.97,7.23-1.37
			C1492.37,644.17,1494.24,643.17,1495.14,641.57z"/>
		<path class="st2" d="M1528.01,509.3c0.82-0.34,1.93-0.59,3.31-0.73c1.38-0.14,2.71-0.3,3.98-0.47l3.93-0.69
			c3.22,0,4.82,1.8,4.82,5.41c0,0.63-0.15,2.12-0.45,4.47c-0.9,3.09-1.35,6.9-1.35,11.42l0.45,12.8l-0.45,19.32
			c0,11.74,0.47,18.72,1.4,20.96c0.93,2.23,2.52,3.35,4.77,3.35c0.82,0,2.86-0.69,6.11-2.06c3.25-1.37,5.91-2.46,7.96-3.26
			c2.06-0.8,4.36-1.56,6.9-2.28c2.54-0.72,4.97-1.16,7.29-1.33l6.28-0.52c2.02-0.17,3.74-0.26,5.16-0.26h1.91
			c5.98,1.03,10.56,2.89,13.74,5.58c3.18,2.69,5.23,6.07,6.17,10.13c0.93,4.07,1.4,10.96,1.4,20.7c0,7.21-1.22,14.79-3.65,22.72
			c-2.43,7.93-3.65,12.15-3.65,12.67v0.86c0,0.74,0.28,1.76,0.84,3.05c0.56,1.29,0.88,2.22,0.95,2.79
			c-2.02,2.81-4.56,4.21-7.63,4.21h-2.02c-0.6,0-1.33,0.09-2.19,0.26c-0.86,0.17-1.44,0.26-1.74,0.26c-0.37,0-1.53-0.42-3.48-1.25
			c-1.94-0.83-2.92-1.7-2.92-2.62c0-0.29,0.41-1.06,1.23-2.32c3.22-4.92,6.11-11.68,8.69-20.27c2.58-8.59,3.87-16.72,3.87-24.39
			v-5.93c0-5.9-1.98-10.64-5.95-14.21s-9.12-5.37-15.48-5.37c-3.07,0-7.52,0.72-13.35,2.15s-8.94,2.78-9.31,4.04
			c-1.12,0-2.39,0.3-3.81,0.9c-1.42,0.6-2.37,0.97-2.86,1.12s-0.84,0.59-1.07,1.33c-0.22,0.74-0.41,1.26-0.56,1.55
			c-0.9-0.23-1.53-0.34-1.91-0.34c-0.45,0-1.05,0.29-1.79,0.86c0,0.63-0.17,1.36-0.5,2.19s-0.71,4.62-1.12,11.38
			c-0.41,6.76-0.62,11.85-0.62,15.29c0,3.49,0.22,7.1,0.67,10.82l0.67,4.29v0.17c0,0.57,0.34,1.72,1.01,3.44
			c0.67,1.72,1.01,2.81,1.01,3.26c0,0.34-0.19,0.86-0.56,1.55c-0.37,0.69-0.56,1.29-0.56,1.8v0.17h0.22c1.2,0,1.79,0.77,1.79,2.32
			c0,0.11-0.3,0.4-0.9,0.86c-1.72,0.17-3.37,0.66-4.94,1.46c-1.57,0.8-2.51,1.26-2.8,1.37c-1.65-0.17-2.88-0.77-3.7-1.8
			c-3.59-0.11-6.13-0.43-7.63-0.94s-2.24-1.43-2.24-2.75c0-0.74,0.11-1.25,0.34-1.5c0.22-0.26,0.34-0.44,0.34-0.56
			c0-0.11-0.11-0.37-0.34-0.77s-0.34-0.8-0.34-1.2c0-0.17,0.3-0.69,0.9-1.55c4.11-6.07,6.17-13.23,6.17-21.47l-0.67-16.92
			c0-2.63,0.07-4.55,0.22-5.75c-2.92-0.92-4.37-2.49-4.37-4.72c0-2.52,1.76-5.47,5.27-8.85c0.15-6.13,0.22-14.8,0.22-26.02
			c0-28.63-1.98-42.89-5.95-42.77c-0.45-0.86-0.67-1.72-0.67-2.58C1524.53,510.9,1525.69,509.3,1528.01,509.3z"/>
	</g>
	<g>
		<path class="st2" d="M855.19,730.42c0,0.54-0.49,0.81-1.46,0.81l-4.34-0.49c-5.81-0.48-9.7-0.86-11.67-1.14
			c-3.11-0.46-5.64-0.91-7.59-1.37c-2.7-0.65-5.18-1.48-7.46-2.5c-2.22-0.98-4.17-2.07-5.84-3.28c-1.56-1.19-2.93-2.55-4.13-4.06
			c-1.14-1.47-2-3.02-2.59-4.65c-0.58-1.65-0.88-3.4-0.88-5.27c0-2.19,0.84-4.94,2.52-8.24c1.68-3.31,2.81-5.37,3.38-6.19
			c0.57-0.82,2-2.15,4.29-3.97c2.29-1.82,5.4-3.47,9.32-4.94c1.39-0.52,2.08-0.91,2.08-1.17c0.72-0.24,1.72-0.36,3-0.37
			c1.28-0.01,2.44-0.17,3.48-0.49s2.73-0.47,5.07-0.47c1.06,0,2.01,0.07,2.86,0.21s1.96,0.28,3.34,0.42s2.43,0.26,3.17,0.36
			c0.74,0.1,1.37,0.24,1.9,0.42s0.79,0.4,0.79,0.63c0,0.3-0.29,1.13-0.88,2.47c-0.58,1.34-1.35,2.02-2.29,2.02
			c-0.5,0-1.04-0.14-1.63-0.42c-1.22-1.06-2.93-1.8-5.11-2.23c-2.18-0.42-3.65-0.63-4.4-0.63c-0.61,0-1.49,0.04-2.63,0.13
			l-2.46,0.13c-0.33,0.02-0.63,0.05-0.88,0.1c-0.64,0.04-1.1,0.13-1.38,0.26c-0.5,0.22-0.96,0.4-1.38,0.55
			c-0.42,0.15-0.81,0.26-1.17,0.33c-0.36,0.07-0.71,0.1-1.04,0.1h-0.42l-0.58,0.49c-0.81,0-1.51,0.24-2.13,0.72h-0.88
			c-7.28,5.83-10.92,11.91-10.92,18.24c0,3.68,1.45,7.09,4.34,10.22c2.89,3.13,6.82,5.49,11.78,7.07s10.04,2.37,15.24,2.37
			c0.95,0,2.46-0.14,4.54-0.42s3.13-0.59,3.13-0.91c1.25,0.02,1.88,1.7,1.88,5.04V730.42z"/>
		<path class="st2" d="M887.88,703.27c0,0.22-0.19,0.58-0.58,1.09c-0.39,0.51-0.65,0.99-0.79,1.43s-0.5,0.89-1.08,1.35h-1.04
			c-1.45-0.67-2.52-1.01-3.21-1.01c-0.5,0-1.32,0.23-2.46,0.68s-2.24,1.26-3.29,2.42s-1.74,2.08-2.04,2.75
			c-0.14,0.74-0.58,1.52-1.33,2.34v1.07c-0.53,1.06-0.75,1.84-0.67,2.32c0.08,0.49,0.13,0.86,0.13,1.12c0,0.28-0.03,0.51-0.08,0.68
			c-0.33,0.26-0.5,0.52-0.5,0.78c0,0.54,0.15,1.5,0.44,2.86c0.29,1.37,0.77,2.41,1.44,3.12v0.29c0,0.98-0.51,1.46-1.54,1.46
			l-0.83,0.65c-0.69,0.04-1.45,0.07-2.25,0.07c-1.03,0-1.93-0.11-2.71-0.33v-0.13c0-0.59,0.23-1.44,0.69-2.57
			c0.46-1.13,0.69-1.98,0.69-2.57l0.25-7.64c0-5.94-0.42-11.17-1.25-15.7c-0.08-0.48-0.13-0.75-0.13-0.81
			c0-0.82,0.51-1.45,1.52-1.89c1.01-0.43,1.9-0.65,2.65-0.65c0.67,0,1.29,0.13,1.88,0.39c0.06,0.09,0.16,0.24,0.31,0.46
			s0.23,0.36,0.23,0.42v0.39c0,0.33-0.24,1.05-0.73,2.18c-0.49,1.13-0.73,2.56-0.73,4.29l0.08,4v0.59c0,0.33,0.38,0.55,1.13,0.68
			c1.17-2.02,2.56-3.6,4.19-4.76c1.63-1.16,3.63-2,6.02-2.52c2.39-0.52,3.91-0.78,4.54-0.78c0.72,0.39,1.08,0.75,1.08,1.07V703.27z"
			/>
		<path class="st2" d="M923.57,707.66c0.22,0.17,0.33,0.42,0.33,0.75c0,0.63-0.22,1.09-0.67,1.4c0.06,0.02,0.08,0.09,0.08,0.2
			c0,0.35-0.6,0.52-1.79,0.52h-0.58c-0.17,0-0.33,0.08-0.5,0.23c-0.17,0.15-0.29,0.23-0.38,0.23c-0.03,0-0.16-0.07-0.4-0.2
			c-0.24-0.13-0.59-0.22-1.06-0.26l-0.5-0.39c-0.61,0.13-1.21,0.2-1.79,0.2c-0.44,0-1.06-0.04-1.86-0.13
			c-0.79-0.09-1.37-0.13-1.73-0.13c-0.31,0-0.95,0.07-1.94,0.2c-0.99,0.13-1.86,0.2-2.61,0.2l-4.09-0.13c-2.2,0-4.18,0.15-5.96,0.46
			c-0.25,0.11-0.62,0.19-1.1,0.24c-0.49,0.05-0.75,0.23-0.79,0.52c-0.04,0.29-0.33,0.53-0.85,0.7c-0.28,0.89-0.42,1.69-0.42,2.41
			c0,0.56,0.21,1.64,0.63,3.22s0.97,2.71,1.67,3.38c0.17,0.15,1.36,0.85,3.59,2.08c1.42,0.82,2.95,1.45,4.61,1.87
			s3.56,0.63,5.73,0.63c0.86,0,1.93-0.05,3.21-0.16l1.75-0.16h2.71c0.28,0,0.8-0.2,1.56-0.59c0.76-0.39,1.54-0.62,2.31-0.68
			c0.33,0.61,0.5,1.14,0.5,1.59c0,1.02-0.4,1.91-1.19,2.67s-1.7,1.14-2.73,1.14l-0.88-0.13l-2.63,0.07h-2.25
			c-1.06,0-3.66-0.35-7.8-1.04c-4.14-0.69-7.2-1.6-9.17-2.73c-1.97-1.13-3.42-2.58-4.34-4.37c-0.92-1.79-1.38-3.52-1.38-5.19
			c0-2.25,0.56-4.55,1.67-6.88c1.11-2.33,2.38-4.14,3.79-5.43c1.42-1.29,3.57-2.63,6.46-4.01c0.28-0.11,0.7-0.33,1.27-0.67
			s1.12-0.5,1.65-0.5l1.38,0.07c0.58-0.3,1.63-0.56,3.15-0.76c1.51-0.21,2.74-0.31,3.69-0.31c1.7,0,3.55,0.49,5.57,1.46
			c2.02,0.98,3.23,3.01,3.65,6.11c0.08,0.54,0.2,0.98,0.35,1.32c0.15,0.34,0.23,0.53,0.23,0.57
			C923.73,707.34,923.68,707.49,923.57,707.66z M906.47,700.54c-0.17,0.2-0.96,0.55-2.38,1.07c-0.69,0.39-1.36,0.83-2,1.33
			c-0.64,0.5-1.26,1.03-1.88,1.61s-1.15,1.09-1.61,1.54c-0.46,0.46-0.81,0.8-1.06,1.02s-0.38,0.43-0.38,0.6
			c0,0.24,0.19,0.41,0.58,0.52l0.54,0.16h3.09l14.51-0.42c1.86,0,2.79-0.64,2.79-1.92c0-1.34-0.34-2.52-1.02-3.53
			c-0.68-1.01-2.47-1.8-5.36-2.39c-0.33,0-0.81-0.02-1.42-0.07s-1.06-0.07-1.33-0.07C909.31,700.02,908.28,700.2,906.47,700.54z"/>
		<path class="st2" d="M958.17,710.85c0,0.17-0.19,0.41-0.56,0.72s-0.63,0.57-0.77,0.81s-0.25,0.87-0.33,1.9
			c-0.08,1.03-0.13,2.55-0.13,4.57l0.17,4.39c0,0.24-0.13,0.44-0.38,0.62c-0.06,0.24-0.08,0.64-0.08,1.2c0,0.8,0.17,1.82,0.5,3.06
			l0.46,1.72l-0.08,1.59l0.08,1.4c-2,1.56-3.49,2.34-4.46,2.34c-0.14,0-0.4-0.08-0.79-0.23c-0.39-0.15-0.75-0.23-1.08-0.23h-0.25
			c-0.22-0.61-0.33-1.15-0.33-1.63c0-1.06,0.32-2.08,0.96-3.06c0.31-0.3,0.54-0.54,0.69-0.72c0.15-0.17,0.23-0.82,0.23-1.95
			c0-1.24-0.17-1.85-0.5-1.85c-0.06,0-0.23,0.04-0.52,0.13c-0.29,0.09-0.6,0.13-0.94,0.13h-0.33c-0.33,0.17-0.54,0.4-0.63,0.68
			c-0.33-0.02-2.15,0.47-5.46,1.46c-1.61,0.43-3.17,0.65-4.67,0.65c-1.64,0-3.11-0.17-4.42-0.5c-1.31-0.34-2.4-0.83-3.29-1.5
			c-0.89-0.66-1.47-1.15-1.73-1.48c-0.26-0.33-0.4-1.03-0.4-2.11l0.08-0.81v-0.26c0-2.17,2.16-4.44,6.48-6.83
			c4.32-2.38,8.36-3.83,12.11-4.32c1-0.13,1.78-0.27,2.33-0.41c0.56-0.14,1.02-0.37,1.4-0.7s0.56-1.07,0.56-2.24
			c0-3.86-2.61-6.48-7.84-7.87c-0.17-0.04-0.4-0.13-0.69-0.26c-0.29-0.13-0.55-0.2-0.77-0.2c-2.7,0-4.95,0.09-6.75,0.26
			c-1,0.89-2.11,1.33-3.34,1.33c-0.92,0-1.38-0.25-1.38-0.75c0-0.02,0.2-0.48,0.6-1.38c0.4-0.9,1.37-1.35,2.9-1.35
			c1.75-0.74,4.95-1.11,9.59-1.11c3.72,0,6.62,1.13,8.67,3.38c2.06,2.25,3.09,5.47,3.09,9.66v0.46c0.22,0.28,0.61,0.49,1.17,0.62
			c0.56,0.13,0.83,0.33,0.83,0.59V710.85z M949.96,722.39c1.75-1.84,2.63-3.49,2.63-4.94c0-0.89-0.28-1.85-0.85-2.89
			s-1.7-1.56-3.4-1.56c-3.28,0-5.95,0.64-8.01,1.92h-1.04c-4.28,1.84-6.42,3.79-6.42,5.85c0,1.45,0.88,2.67,2.65,3.66
			c1.77,0.99,3.82,1.48,6.15,1.48c0.61,0,1.78-0.21,3.5-0.62c1.72-0.41,3.32-1.18,4.79-2.31V722.39z"/>
		<path class="st2" d="M988.57,699.8c0.03,0.13,0.19,0.24,0.5,0.34c0.31,0.1,0.47,0.14,0.5,0.14h0.46c0.92,0,1.71,0.16,2.38,0.48
			c0.67,0.32,1,0.69,1,1.09c0,0.43-0.39,0.85-1.17,1.26l-0.5-0.42c-0.39,0.54-1.06,0.87-2,1l-0.25-0.39l-0.5,0.13
			c-1.22-0.43-2.47-0.65-3.75-0.65l-3.92,0.13c-0.56,0-1.39-0.04-2.5-0.13c-0.72,4.21-1.08,7.52-1.08,9.93
			c0,0.89,0.06,1.93,0.19,3.11s0.37,2.15,0.73,2.9c0.36,0.75,0.72,1.44,1.08,2.07c0.36,0.63,0.97,1.25,1.83,1.87
			c0.86,0.62,1.66,1.06,2.4,1.32s1.38,0.62,1.92,1.09c0.54,0.47,1.95,0.7,4.23,0.7h0.83c0.53,0.33,0.79,0.6,0.79,0.81
			c0,0.24-0.2,0.61-0.6,1.11c-0.4,0.5-0.72,0.92-0.96,1.27c-0.24,0.35-0.63,0.73-1.19,1.14h-0.17c-0.14,0-0.25-0.07-0.33-0.2
			c-0.97,0-1.83-0.09-2.59-0.26c0,0.04-0.03,0.07-0.08,0.07s-0.19-0.06-0.4-0.18c-0.21-0.12-0.41-0.21-0.6-0.28
			c-0.19-0.3-0.6-0.57-1.21-0.81c-1.25-0.35-2.41-0.86-3.48-1.53c-1.07-0.67-2.18-1.63-3.31-2.86c-1.14-1.24-1.86-2.37-2.15-3.42
			c-0.29-1.04-0.53-2.3-0.71-3.76c-0.18-1.46-0.27-3.03-0.27-4.7c0-2.82,0.26-5.92,0.79-9.31l-0.88-0.23l-0.25,0.42h-0.58
			l-0.17-0.42c-6.45-0.19-9.67-0.67-9.67-1.44c0-0.28,0.2-0.53,0.6-0.75c0.4-0.23,1.58-0.34,3.52-0.34h1.63l1.75-0.33
			c0.64-0.11,1.26-0.3,1.88-0.59s1.15-0.63,1.61-1.04c0.46-0.41,0.88-1.85,1.27-4.32c0.25-1.52,0.38-3.13,0.38-4.84v-1.33
			c0-0.41,0.19-1,0.58-1.76c0.39-0.76,0.87-1.35,1.44-1.79s0.98-0.65,1.23-0.65c0.56,0,1.14,0.08,1.75,0.24s0.96,0.28,1.04,0.34
			c0.08,0.07,0.18,0.23,0.29,0.5c0.11,0.27,0.25,0.48,0.42,0.63v0.13c0,0.09-0.1,0.15-0.31,0.2c-0.21,0.04-0.34,0.09-0.4,0.13
			c-0.06,0.04-0.1,0.09-0.15,0.13s-0.24,0.63-0.6,1.76c-0.36,1.13-0.67,2.25-0.92,3.38c-0.25,1.13-0.44,2.23-0.58,3.32
			c-0.14,1.08-0.21,2.16-0.21,3.22c0,1.52,0.08,2.37,0.25,2.57c0.17,0.2,0.4,0.29,0.71,0.29c0.14,0,0.49-0.07,1.06-0.21
			s1.09-0.21,1.56-0.21c0.25,0,0.46,0.02,0.63,0.07l0.5,0.81c0.17,0.04,0.39,0.07,0.67,0.07c0.31,0,0.9-0.15,1.77-0.44
			C987.17,700.07,987.93,699.88,988.57,699.8z"/>
		<path class="st2" d="M1009.46,728.24c0,0.13-0.6,0.38-1.8,0.76c-1.2,0.38-1.96,0.57-2.26,0.57h-0.25c-0.28,0-0.64,0.04-1.07,0.13
			c-0.43,0.09-0.73,0.13-0.9,0.13c-0.53,0-1.01-0.15-1.42-0.44c-0.42-0.29-0.63-0.53-0.63-0.7c0-0.46,0.11-1.16,0.33-2.13
			c0.22-0.96,0.57-1.67,1.04-2.13c0.22-1.37,0.33-3.91,0.33-7.64l-0.33-11.8l0.08-2.05c0-0.22-0.23-0.62-0.69-1.2
			c-0.46-0.59-0.69-1.3-0.69-2.15c0-0.5,0.18-0.85,0.53-1.06c0.35-0.21,1.15-0.51,2.41-0.93l2.39-0.81c0.11-0.04,0.28-0.07,0.5-0.07
			c0.7,0,1.05,0.85,1.05,2.54c0,0.95-0.22,3.43-0.65,7.43c-0.43,4-0.65,7.24-0.65,9.74c0,1.41,0.05,2.74,0.15,3.98
			c0.1,1.25,0.2,2.19,0.31,2.84c0.11,0.65,0.36,1.25,0.75,1.79c0.78,1.13,1.17,2.15,1.17,3.06
			C1009.28,728.15,1009.37,728.2,1009.46,728.24z M1007.54,686.82c0.44,0.26,1.17,0.57,2.17,0.94c1,0.37,1.5,0.81,1.5,1.33
			c0,0.48-0.36,0.98-1.08,1.51c-0.72,0.53-1.45,0.8-2.17,0.8c-0.81,0-1.66-0.36-2.56-1.07s-1.36-1.13-1.36-1.24
			c0-0.39,0.38-0.87,1.15-1.43c0.76-0.56,1.51-0.85,2.23-0.85H1007.54z"/>
		<path class="st2" d="M1021.42,708.39c4.34-6.44,12.13-9.67,23.39-9.67c1.75,0,3.31,0.08,4.69,0.23c1.38,0.15,2.65,0.4,3.82,0.75
			c1.17,0.35,2.25,0.81,3.25,1.4c1,0.59,1.97,1.31,2.9,2.18c0.93,0.87,1.86,1.91,2.77,3.12c0.5,0.65,0.75,2.06,0.75,4.23
			c0,4.97-2.16,9.2-6.48,12.69s-9.67,5.24-16.03,5.24h-0.33c-1.31-0.22-2.03-0.33-2.17-0.33c-0.11,0-0.19,0.02-0.25,0.07
			c-0.25,0.3-1.1,0.46-2.54,0.46c-1.97,0-4.3-0.44-6.98-1.32c-2.68-0.88-4.88-2.23-6.59-4.05c-1.71-1.82-2.56-3.74-2.56-5.76
			c0-0.78,0.05-1.56,0.15-2.33c0.1-0.77,0.25-1.51,0.46-2.21c0.21-0.71,0.47-1.37,0.77-2l1-1.85V708.39z M1058.16,713.69v-0.85
			c0-3.6-1.45-6.5-4.36-8.71c-2.9-2.2-6.75-3.31-11.53-3.31c-1.06,0-2.04,0.09-2.96,0.28c-0.92,0.18-1.45,0.3-1.58,0.36
			c-0.14,0.05-0.38,0.28-0.73,0.68c-0.35,0.4-0.6,0.64-0.75,0.72c-0.15,0.08-0.37,0.11-0.65,0.11l-2.13-0.2
			c-0.31,0-0.51,0.2-0.63,0.59c-2.11,0.13-4.1,1.36-5.96,3.68c-1.86,2.32-2.79,4.74-2.79,7.26c0,0.54,0.14,1.69,0.42,3.43
			s1.14,3.19,2.59,4.33c1.45,1.14,3.2,2.12,5.27,2.93c2.07,0.81,3.75,1.22,5.02,1.22c0.33,0,0.67-0.03,1-0.1l0.38-0.1h1.71
			c3.72,0,6.25-0.44,7.59-1.33c0.14-0.09,0.22-0.13,0.25-0.13c0.17,0,0.43,0.07,0.79,0.2c3.06-2.06,5.33-4.23,6.82-6.49
			C1057.41,716,1058.16,714.48,1058.16,713.69z"/>
		<path class="st2" d="M1091.68,700.22c1.81-0.24,3.32-0.36,4.54-0.36c7.56,0,11.34,3.68,11.34,11.05c0,4.1-0.86,8.83-2.59,14.21
			c-0.78,2.32-1.17,3.87-1.17,4.65c0,0.17,0.06,0.35,0.17,0.52c-0.33,1.34-1.35,2.02-3.04,2.02c-1,0-1.91-0.22-2.73-0.65
			c-0.82-0.43-1.23-0.89-1.23-1.37c0-0.72,0.58-1.6,1.75-2.67s2.24-3.13,3.21-6.21c0.97-3.08,1.46-6.18,1.46-9.3
			c0-6.39-3.36-9.59-10.09-9.59c-2.64,0-5.12,0.42-7.44,1.27c-2.32,0.85-3.65,1.78-3.98,2.8c-0.25,0.22-0.63,0.43-1.13,0.65
			c-0.44,0.17-0.7,0.33-0.77,0.47s-0.22,1.78-0.44,4.93c-0.22,3.14-0.33,5.53-0.33,7.15v1.53c0,0.8,0.17,1.54,0.52,2.21
			c0.35,0.67,0.52,1.06,0.52,1.17l-0.08,1.14c0,0.72-0.16,1.28-0.48,1.71c-0.32,0.42-0.73,0.63-1.23,0.63h-0.17l-0.25,0.46
			c-0.33-0.09-0.57-0.13-0.71-0.13c-0.39,0-0.89,0.17-1.5,0.52h-0.21c-0.31,0-0.78-0.28-1.42-0.85c-0.92,0-1.38-0.27-1.38-0.81
			c0-0.48,0.19-0.88,0.58-1.2c0.36,0,0.78-1.42,1.25-4.27s0.71-6.46,0.71-10.84c0-5.68-0.6-8.92-1.79-9.72l-0.08-0.59
			c0-0.82,0.61-1.38,1.83-1.66c0.5-0.11,0.95-0.4,1.36-0.88s0.83-0.72,1.27-0.72h0.08c0.56-0.07,1.04-0.17,1.44-0.33
			c0.4-0.15,0.63-0.23,0.69-0.23c0.39,0,0.58,0.42,0.58,1.27c0,0.65-0.17,1.39-0.5,2.23c-0.33,0.83-0.5,1.36-0.5,1.58
			c0,0.33,0.15,0.61,0.44,0.85s0.66,0.36,1.1,0.36h0.25c0.78-0.59,1.2-0.88,1.25-0.88h0.13c2.67,0,4.68-0.42,6.05-1.27
			c0.25-0.02,0.56-0.06,0.92-0.11c0.36-0.05,0.6-0.08,0.71-0.08C1091.26,700.54,1091.62,700.33,1091.68,700.22z"/>
		<path class="st2" d="M1137.13,711.79c2.17,1.52,3.25,3.34,3.25,5.46c0,2.75-1.09,5.25-3.27,7.49c-2.18,2.24-5,3.58-8.44,4.01
			c-0.75,0-1.81,0.04-3.17,0.13c-1.03,0.33-2.11,0.49-3.25,0.49c-1.5,0-2.68-0.24-3.54-0.72s-1.29-1.42-1.29-2.83
			c0-0.41,0.03-0.73,0.08-0.94h0.33c0.56,0,1.08,0.11,1.58,0.34c0.5,0.23,0.82,0.34,0.96,0.34l0.25-0.07
			c0.95,0.72,2.54,1.07,4.79,1.07c2.14,0,4.09-0.3,5.84-0.9c1.75-0.6,3.05-1.59,3.9-2.98s1.27-2.64,1.27-3.74
			c0-1.61-0.79-2.94-2.35-4c-1.57-1.06-5.11-2.25-10.61-3.57c-0.84-0.11-1.38-0.25-1.63-0.42l-1.92-1.3c-1.03-0.67-1.7-1.34-2-2.02
			l-0.42-1.01c0-3.42,1.27-5.86,3.81-7.3c2.54-1.44,6.93-2.16,13.15-2.16l2.33,0.1c0.14,0,0.42-0.05,0.83-0.16
			c0.44,0.35,0.67,0.83,0.67,1.46c0,0.72-0.15,1.39-0.46,2.03c-0.31,0.64-0.63,1.01-0.96,1.12c-0.25-0.39-0.54-0.68-0.88-0.88h-0.08
			c-0.08,0-0.21,0.04-0.38,0.11s-0.29,0.12-0.38,0.15c-1.31-1.15-2.93-1.72-4.88-1.72c-3.75,0-6.23,0.56-7.42,1.68
			c-1.2,1.12-1.79,2.36-1.79,3.73c0,1.97,2.01,3.33,6.05,4.06c2.95,0.56,5.35,1.14,7.21,1.74
			C1136.19,711.2,1137.13,711.6,1137.13,711.79z"/>
	</g>
	<path class="st7" d="M866.3,419.57l3.92,9.67c0,0,1.3,3.81,6.91,3.65c0,0,6.63-0.19,8.78-1.07l1.12,4.61c0,0-6.83,3.28-11.03,4.27
		c0,0-11.5,3.56-15.75-7.67c0,0-2.51-8.17,2.04-12.48C862.3,420.55,864.26,418.45,866.3,419.57z"/>
	<path class="st7" d="M1058.98,419.57l-3.92,9.67c0,0-1.3,3.81-6.91,3.65c0,0-6.63-0.19-8.78-1.07l-1.12,4.61
		c0,0,6.83,3.28,11.03,4.27c0,0,11.5,3.56,15.75-7.67c0,0,2.51-8.17-2.04-12.48C1062.98,420.55,1061.03,418.45,1058.98,419.57z"/>
</g>
</svg>
